<?xml version="1.0" standalone="no"?>
<!DOCTYPE svg PUBLIC "-//W3C//DTD SVG 20010904//EN"
 "http://www.w3.org/TR/2001/REC-SVG-20010904/DTD/svg10.dtd">
<svg version="1.0" xmlns="http://www.w3.org/2000/svg"
 width="512.000000pt" height="512.000000pt" viewBox="0 0 512.000000 512.000000"
 preserveAspectRatio="xMidYMid meet">

<g transform="translate(0.000000,512.000000) scale(0.100000,-0.100000)"
fill="#000000" stroke="none">
<path d="M2417 5114 c-4 -4 -7 -547 -7 -1206 l0 -1198 -420 0 -420 0 -4 23
c-3 12 -7 71 -11 130 -31 572 -214 1072 -497 1357 -84 85 -223 190 -251 190
-16 0 -207 -195 -207 -211 0 -5 4 -9 9 -9 24 0 195 -126 249 -185 141 -150
256 -379 326 -645 44 -166 86 -458 86 -596 l0 -54 -633 -2 -632 -3 0 -145 0
-145 634 -3 634 -2 -6 -118 c-24 -445 -151 -851 -343 -1103 -59 -78 -169 -177
-245 -221 -34 -21 -68 -39 -73 -41 -14 -5 36 -66 126 -154 l73 -73 64 41 c74
49 197 161 262 239 139 166 268 434 337 700 49 187 92 481 92 629 0 31 3 66 6
79 l6 22 419 0 419 0 2 -1202 3 -1203 145 0 145 0 3 1203 2 1202 420 0 419 0
5 -32 c3 -18 8 -82 11 -143 12 -225 61 -497 127 -694 120 -363 304 -629 548
-793 l75 -50 102 106 c57 58 103 110 103 114 0 4 -21 18 -47 31 -63 30 -145
95 -219 173 -220 229 -374 680 -401 1170 l-6 118 634 2 634 3 0 145 0 145
-632 3 -633 2 0 59 c0 32 5 105 10 162 48 477 197 868 414 1085 63 63 214 174
237 174 5 0 9 4 9 10 0 16 -191 210 -207 210 -27 0 -176 -113 -254 -192 -292
-297 -461 -769 -504 -1410 l-7 -98 -419 0 -419 0 -2 1203 -3 1202 -141 3 c-77
1 -143 -1 -147 -4z"/>
</g>
</svg>
