<?xml version="1.0" standalone="no"?>
<!DOCTYPE svg PUBLIC "-//W3C//DTD SVG 20010904//EN"
 "http://www.w3.org/TR/2001/REC-SVG-20010904/DTD/svg10.dtd">
<svg version="1.0" xmlns="http://www.w3.org/2000/svg"
 width="16.000000pt" height="16.000000pt" viewBox="0 0 16.000000 16.000000"
 preserveAspectRatio="xMidYMid meet">

<g transform="translate(0.000000,16.000000) scale(0.100000,-0.100000)"
fill="#000000" stroke="none">
<path d="M70 125 c0 -19 -4 -35 -10 -35 -5 0 -10 6 -10 14 0 7 -7 19 -15 26
-17 15 -19 7 -5 -21 9 -16 7 -19 -10 -19 -11 0 -20 -4 -20 -10 0 -5 9 -10 20
-10 17 0 19 -3 10 -19 -14 -28 -12 -36 5 -21 8 7 15 19 15 26 0 8 5 14 10 14
6 0 10 -16 10 -35 0 -19 5 -35 10 -35 6 0 10 16 10 35 0 19 5 35 10 35 6 0 10
-6 10 -14 0 -7 7 -19 15 -26 17 -15 19 -7 5 21 -9 16 -7 19 10 19 11 0 20 5
20 10 0 6 -9 10 -20 10 -17 0 -19 3 -10 19 14 28 12 36 -5 21 -8 -7 -15 -19
-15 -26 0 -8 -4 -14 -10 -14 -5 0 -10 16 -10 35 0 19 -4 35 -10 35 -5 0 -10
-16 -10 -35z"/>
</g>
</svg>
