<?xml version="1.0" standalone="no"?>
<!DOCTYPE svg PUBLIC "-//W3C//DTD SVG 20010904//EN"
 "http://www.w3.org/TR/2001/REC-SVG-20010904/DTD/svg10.dtd">
<svg version="1.0" xmlns="http://www.w3.org/2000/svg"
 width="32.000000pt" height="32.000000pt" viewBox="0 0 32.000000 32.000000"
 preserveAspectRatio="xMidYMid meet">

<g transform="translate(0.000000,32.000000) scale(0.100000,-0.100000)"
fill="#000000" stroke="none">
<path d="M150 245 c0 -71 -1 -75 -22 -75 -19 0 -26 9 -38 48 -10 30 -21 48
-33 50 -17 3 -17 2 -4 -20 8 -12 17 -35 21 -50 6 -27 5 -28 -34 -28 -22 0 -40
-4 -40 -10 0 -5 18 -10 40 -10 39 0 40 -1 34 -27 -4 -16 -13 -38 -20 -50 -19
-30 1 -40 20 -10 9 13 19 37 22 55 5 25 12 32 30 32 23 0 24 -3 24 -75 0 -43
4 -75 10 -75 6 0 10 32 10 75 0 72 1 75 24 75 18 0 25 -7 30 -32 3 -18 13 -42
22 -55 19 -30 39 -20 20 10 -7 12 -16 34 -20 50 -6 26 -5 27 34 27 22 0 40 5
40 10 0 6 -18 10 -40 10 -39 0 -40 1 -34 28 4 15 13 38 21 50 13 22 13 23 -4
20 -12 -2 -23 -20 -33 -50 -12 -39 -19 -48 -37 -48 -22 0 -23 4 -23 75 0 43
-4 75 -10 75 -6 0 -10 -32 -10 -75z"/>
</g>
</svg>
